<svg width="100" height="100" viewBox="0 0 100 100" fill="none" xmlns="http://www.w3.org/2000/svg">
<path d="M49.9993 49.9998C45.416 49.9998 41.666 48.3332 38.3327 44.9998C34.9993 41.6665 33.3327 37.9165 33.3327 33.3332C33.3327 28.7498 34.9993 24.9998 38.3327 21.6665C41.666 18.3332 45.416 16.6665 49.9993 16.6665C54.5827 16.6665 58.3327 18.3332 61.666 21.6665C64.9993 24.9998 66.666 28.7498 66.666 33.3332C66.666 37.9165 64.9993 41.6665 61.666 44.9998C58.3327 48.3332 54.5827 49.9998 49.9993 49.9998ZM49.9993 83.3332H16.666V71.6665C16.666 69.1665 17.0827 67.0832 18.3327 64.9998C19.5827 62.9165 21.2493 61.6665 23.3327 60.4165C27.4993 58.3332 32.0827 56.6665 36.666 55.4165C41.2493 54.1665 45.416 54.1665 49.9993 54.1665V62.4998C46.2493 62.4998 42.0827 62.9165 38.3327 63.7498C34.5827 64.5832 30.8327 66.2498 27.0827 67.9165C26.2493 68.3332 25.8327 68.7498 25.416 69.5832C24.9993 70.4165 24.9993 70.8332 24.9993 71.6665V74.9998H49.9993V83.3332ZM49.9993 41.6665C52.4993 41.6665 54.166 40.8332 55.8327 39.1665C57.4993 37.4998 58.3327 35.8332 58.3327 33.3332C58.3327 30.8332 57.4993 29.1665 55.8327 27.4998C54.166 25.8332 52.4993 24.9998 49.9993 24.9998C47.4993 24.9998 45.8327 25.8332 44.166 27.4998C42.4993 29.1665 41.666 30.8332 41.666 33.3332C41.666 35.8332 42.4993 37.4998 44.166 39.1665C45.8327 40.8332 47.4993 41.6665 49.9993 41.6665Z" fill="#212121"/>
<path d="M60.0007 76.6665L66.6673 71.6665L73.334 76.6665L70.834 68.3332L77.5007 63.7498H69.1673L66.6673 54.9998L64.1673 63.7498H55.834L62.5007 68.3332L60.0007 76.6665ZM66.6673 83.3332C64.1673 83.3332 62.084 82.9165 60.0007 82.0832C57.9173 81.2498 56.2507 79.9998 54.584 78.3332C52.9173 76.6665 52.084 74.9998 50.834 72.9165C50.0007 70.8332 49.584 68.7498 49.584 66.2498C49.584 63.7498 50.0007 61.6665 50.834 59.5832C51.6673 57.4998 52.9173 55.8332 54.584 54.1665C56.2507 52.4998 57.9173 51.6665 60.0007 50.4165C62.084 49.5832 64.1673 49.1665 66.6673 49.1665C69.1673 49.1665 71.2507 49.5832 73.334 50.4165C75.4173 51.2498 77.084 52.4998 78.7507 54.1665C80.4173 55.8332 81.2506 57.4998 82.5006 59.5832C83.334 61.6665 83.7507 63.7498 83.7507 66.2498C83.7507 68.7498 83.334 70.8332 82.5006 72.9165C81.6673 74.9998 80.4173 76.6665 78.7507 78.3332C77.084 79.9998 75.4173 80.8332 73.334 82.0832C71.2507 82.9165 69.1673 83.3332 66.6673 83.3332ZM66.6673 79.9998C70.4173 79.9998 73.334 78.7498 76.2506 76.2498C78.7506 73.7498 80.0007 70.4165 80.0007 66.6665C80.0007 62.9165 78.7506 59.5832 76.2506 57.0832C73.7506 54.5832 70.4173 53.3332 66.6673 53.3332C62.9173 53.3332 60.0007 54.5832 57.084 57.0832C54.584 59.5832 53.334 62.9165 53.334 66.6665C53.334 70.4165 54.584 73.3332 57.084 76.2498C60.0007 78.7498 62.9173 79.9998 66.6673 79.9998Z" fill="#212121"/>
</svg>
