<svg width="100" height="100" viewBox="0 0 100 100" fill="none" xmlns="http://www.w3.org/2000/svg">
<path d="M49.9993 49.9998C45.416 49.9998 41.666 48.3332 38.3327 44.9998C34.9993 41.6665 33.3327 37.9165 33.3327 33.3332C33.3327 28.7498 34.9993 24.9998 38.3327 21.6665C41.666 18.3332 45.416 16.6665 49.9993 16.6665C54.5827 16.6665 58.3327 18.3332 61.666 21.6665C64.9993 24.9998 66.666 28.7498 66.666 33.3332C66.666 37.9165 64.9993 41.6665 61.666 44.9998C58.3327 48.3332 54.5827 49.9998 49.9993 49.9998ZM49.9993 83.3332H16.666V71.6665C16.666 69.1665 17.0827 67.0832 18.3327 64.9998C19.5827 62.9165 21.2493 61.6665 23.3327 60.4165C27.4993 58.3332 32.0827 56.6665 36.666 55.4165C41.2493 54.1665 45.416 54.1665 49.9993 54.1665V62.4998C46.2493 62.4998 42.0827 62.9165 38.3327 63.7498C34.5827 64.5832 30.8327 66.2498 27.0827 67.9165C26.2493 68.3332 25.8327 68.7498 25.416 69.5832C24.9993 70.4165 24.9993 70.8332 24.9993 71.6665V74.9998H49.9993V83.3332ZM49.9993 41.6665C52.4993 41.6665 54.166 40.8332 55.8327 39.1665C57.4993 37.4998 58.3327 35.8332 58.3327 33.3332C58.3327 30.8332 57.4993 29.1665 55.8327 27.4998C54.166 25.8332 52.4993 24.9998 49.9993 24.9998C47.4993 24.9998 45.8327 25.8332 44.166 27.4998C42.4993 29.1665 41.666 30.8332 41.666 33.3332C41.666 35.8332 42.4993 37.4998 44.166 39.1665C45.8327 40.8332 47.4993 41.6665 49.9993 41.6665Z" fill="#212121"/>
<path d="M67.0833 70.8333C67.9167 70.8333 69.1667 70.4167 69.5833 69.5833C70.4167 68.75 70.8333 67.9167 70.8333 67.0833C70.8333 66.25 70.4167 65 69.5833 64.5833C68.75 63.75 67.9167 63.3333 67.0833 63.3333C66.25 63.3333 65 63.75 64.5833 64.5833C63.75 65.4167 63.3333 66.25 63.3333 67.0833C63.3333 67.9167 63.75 69.1667 64.5833 69.5833C65.4167 70.8333 66.25 70.8333 67.0833 70.8333ZM75.4167 77.5L71.25 73.3333C70.8333 73.75 70 73.75 69.5833 74.1667C69.1667 74.5833 68.3333 74.5833 67.9167 74.5833C65.8333 74.5833 64.1667 73.75 62.9167 72.5C61.6667 71.25 60.8333 69.5833 60.8333 67.5C60.8333 65.4167 61.6667 63.75 62.9167 62.5C64.1667 61.25 65.8333 60.4167 67.9167 60.4167C70 60.4167 71.6667 61.25 72.9167 62.5C74.1667 63.75 75 65.4167 75 67.5C75 68.3333 75 68.75 74.5833 69.1667C74.5833 69.5833 74.1667 70.4167 73.75 70.8333L77.9167 75L75.4167 77.5ZM57.0833 83.3333C56.25 83.3333 55.4167 82.9167 54.5833 82.5C53.75 81.6667 53.75 81.25 53.75 80V73.3333H57.0833V80H63.75V83.3333H57.0833ZM73.3333 83.3333V80H80V73.3333H83.3333V80C83.3333 80.8333 82.9167 81.6667 82.5 82.5C82.0833 83.3333 80.8333 83.3333 80 83.3333H73.3333ZM53.75 63.75V57.0833C53.75 56.25 54.1667 55.4167 54.5833 54.5833C55.4167 53.75 55.8333 53.75 57.0833 53.75H63.75V57.0833H57.0833V63.75H53.75ZM80 63.75V57.0833H73.3333V53.75H80C80.8333 53.75 81.6667 54.1667 82.5 54.5833C83.3333 55.4167 83.3333 55.8333 83.3333 57.0833V63.75H80Z" fill="#212121"/>
</svg>
