<svg width="101" height="100" viewBox="0 0 101 100" fill="none" xmlns="http://www.w3.org/2000/svg">
<path d="M50.8275 49.9998C46.2441 49.9998 42.3205 48.3679 39.0566 45.104C35.7928 41.8401 34.1608 37.9165 34.1608 33.3332C34.1608 28.7498 35.7928 24.8262 39.0566 21.5623C42.3205 18.2984 46.2441 16.6665 50.8275 16.6665C55.4108 16.6665 59.3344 18.2984 62.5983 21.5623C65.8622 24.8262 67.4941 28.7498 67.4941 33.3332C67.4941 37.9165 65.8622 41.8401 62.5983 45.104C59.3344 48.3679 55.4108 49.9998 50.8275 49.9998ZM17.4941 83.3332V71.6665C17.4941 69.3054 18.1018 67.1353 19.3171 65.1561C20.5323 63.1769 22.1469 61.6665 24.1608 60.6248C28.4664 58.4721 32.8414 56.8575 37.2858 55.7811C41.7303 54.7047 46.2441 54.1665 50.8275 54.1665C55.4108 54.1665 59.9247 54.7047 64.3691 55.7811C68.8136 56.8575 73.1886 58.4721 77.4941 60.6248C79.508 61.6665 81.1226 63.1769 82.3379 65.1561C83.5532 67.1353 84.1608 69.3054 84.1608 71.6665V83.3332H17.4941ZM25.8275 74.9998H75.8275V71.6665C75.8275 70.9026 75.6365 70.2082 75.2546 69.5832C74.8726 68.9582 74.3691 68.4721 73.7441 68.1248C69.9941 66.2498 66.2094 64.8436 62.39 63.9061C58.5705 62.9686 54.7164 62.4998 50.8275 62.4998C46.9386 62.4998 43.0844 62.9686 39.265 63.9061C35.4455 64.8436 31.6608 66.2498 27.9108 68.1248C27.2858 68.4721 26.7823 68.9582 26.4004 69.5832C26.0184 70.2082 25.8275 70.9026 25.8275 71.6665V74.9998ZM50.8275 41.6665C53.1191 41.6665 55.0809 40.8505 56.7129 39.2186C58.3448 37.5866 59.1608 35.6248 59.1608 33.3332C59.1608 31.0415 58.3448 29.0797 56.7129 27.4478C55.0809 25.8158 53.1191 24.9998 50.8275 24.9998C48.5358 24.9998 46.574 25.8158 44.9421 27.4478C43.3101 29.0797 42.4941 31.0415 42.4941 33.3332C42.4941 35.6248 43.3101 37.5866 44.9421 39.2186C46.574 40.8505 48.5358 41.6665 50.8275 41.6665Z" fill="#212121"/>
</svg>
