<svg width="210" height="28" viewBox="0 0 210 28" fill="none" xmlns="http://www.w3.org/2000/svg">
<path d="M7.2621 1.07098H0.953125L12.53 27.049H18.8749L7.55825 1.6536L7.2621 1.07098Z" fill="#EC1C24"/>
<path d="M0 27.0489H8.77692L4.2 16.7845L0 27.0489Z" fill="#EC1C24"/>
<path d="M22.4688 5.62056L32.0175 27.049H38.3264L26.2739 0L22.4688 5.62056Z" fill="#212121"/>
<path d="M41.7968 13.5202L35.7661 0L31.9609 5.62056L35.5058 13.563L41.7968 13.5202Z" fill="#212121"/>
<path d="M22.9496 14.3256L17.3676 1.6536L17.0445 1.07098H17.0355H14.8727H10.7266L22.7343 28L26.7368 22.825L22.9496 14.3256Z" fill="#212121"/>
<path d="M71.9086 9.90453C71.2086 9.20196 70.4368 8.63648 69.6022 8.22522C68.3816 7.62546 67.0086 7.31702 65.5278 7.31702C64.2086 7.31702 62.9611 7.55692 61.8214 8.03672C60.6816 8.51653 59.6855 9.17626 58.8419 9.99878C57.9983 10.8213 57.3342 11.798 56.8586 12.8947C56.3829 13.9914 56.1406 15.1738 56.1406 16.4076C56.1406 17.6414 56.374 18.8237 56.8406 19.9204C57.3073 21.0171 57.9624 21.9939 58.7881 22.825C59.6227 23.6646 60.6188 24.3329 61.7586 24.8213C62.8983 25.3097 64.1458 25.5581 65.474 25.5581C66.9099 25.5581 68.256 25.2754 69.4765 24.7185C70.347 24.3244 71.1727 23.7674 71.9265 23.0734V25.1554H75.1034V7.75398H71.9265V9.90453H71.9086ZM70.2483 12.0979C70.8137 12.6463 71.2714 13.3146 71.5855 14.0685C71.9086 14.8225 72.0701 15.6536 72.0701 16.5447C72.0701 17.4871 71.8906 18.3439 71.5316 19.1065C71.1727 19.869 70.6881 20.5202 70.1047 21.0428C69.5124 21.5655 68.8304 21.9767 68.0675 22.2681C66.4701 22.8678 64.6393 22.8335 63.1945 22.1995C62.4316 21.8654 61.7675 21.4027 61.2111 20.8372C60.6458 20.2632 60.197 19.5863 59.8829 18.8409C59.5599 18.0955 59.3983 17.2987 59.3983 16.4761C59.3983 15.6536 59.5599 14.8654 59.865 14.1285C60.1791 13.3917 60.6188 12.7319 61.1752 12.1665C61.7316 11.601 62.4047 11.1469 63.1765 10.8127C63.9393 10.4786 64.7919 10.3158 65.7163 10.3158C66.6406 10.3158 67.4663 10.4786 68.2291 10.787C69.0009 11.104 69.674 11.541 70.2483 12.0979Z" fill="#212121"/>
<path d="M84.6503 10.3244C85.2516 10.3244 85.799 10.4529 86.2746 10.7013C86.7862 10.967 87.2887 11.3268 87.7734 11.7723L88.1323 12.0979L90.2593 10.0245L89.9003 9.69033C89.1375 8.9792 88.3567 8.41371 87.5759 7.98531C86.7593 7.53978 85.817 7.31702 84.7849 7.31702C84.0759 7.31702 83.4028 7.4284 82.7567 7.65973C82.1105 7.89107 81.5452 8.22522 81.0695 8.66218C80.6028 9.09915 80.2259 9.60465 79.9567 10.1873C79.6785 10.7699 79.5349 11.4382 79.5349 12.1665C79.5349 12.9376 79.6964 13.6402 80.0105 14.2399C80.3157 14.8311 80.7554 15.3623 81.2939 15.825C81.8144 16.2705 82.4336 16.6903 83.1516 17.0759C83.8336 17.4529 84.5695 17.8384 85.3503 18.2583C85.9157 18.5581 86.3285 18.8752 86.5887 19.2007C86.8311 19.5006 86.9387 19.8776 86.9387 20.3574C86.9387 20.6744 86.867 20.9657 86.7323 21.2313C86.5887 21.5141 86.3913 21.7454 86.149 21.9596C85.9067 22.1652 85.6195 22.328 85.2964 22.4394C84.4887 22.7307 83.4926 22.6536 82.6221 22.2081C82.0746 21.9253 81.5362 21.4969 81.0157 20.94L80.6387 20.5373L78.6016 22.7564L78.8529 23.0649C79.5259 23.8874 80.3605 24.5214 81.3208 24.9584C82.2811 25.3868 83.2952 25.6095 84.3452 25.6095C85.1887 25.6095 85.9695 25.4639 86.6695 25.164C87.3605 24.8727 87.9708 24.4786 88.4644 23.9902C88.967 23.5018 89.3528 22.9278 89.6221 22.2852C89.8913 21.6426 90.0349 20.9572 90.0349 20.2632C90.0349 19.5177 89.9003 18.858 89.6311 18.2925C89.3708 17.7442 88.9759 17.2387 88.4823 16.7846C88.0067 16.3476 87.4054 15.9278 86.7054 15.5251C86.0323 15.1395 85.2516 14.7197 84.3811 14.257C83.7439 13.94 83.2682 13.5887 82.9541 13.2375C82.6759 12.9204 82.5323 12.5263 82.5323 12.0379C82.5323 11.5496 82.7298 11.164 83.1246 10.8299C83.5464 10.4786 84.04 10.3072 84.6323 10.3072L84.6503 10.3244Z" fill="#212121"/>
<path d="M98.8768 10.3244C99.4781 10.3244 100.026 10.4529 100.501 10.7013C101.013 10.967 101.515 11.3268 102 11.7723L102.359 12.0979L104.486 10.0245L104.127 9.69033C103.364 8.9792 102.583 8.41371 101.802 7.98531C100.986 7.53978 100.044 7.31702 99.0115 7.31702C98.3025 7.31702 97.6294 7.4284 96.9833 7.65973C96.3371 7.89107 95.7717 8.22522 95.2961 8.66218C94.8294 9.09915 94.4525 9.60465 94.1832 10.1873C93.905 10.7699 93.7615 11.4382 93.7615 12.1665C93.7615 12.9376 93.923 13.6402 94.2371 14.2399C94.5422 14.8311 94.982 15.3623 95.5204 15.825C96.0409 16.2705 96.6602 16.6903 97.3781 17.0759C98.0602 17.4529 98.7961 17.8384 99.5768 18.2583C100.142 18.5581 100.555 18.8752 100.815 19.2007C101.058 19.5006 101.165 19.8776 101.165 20.3574C101.165 20.6744 101.094 20.9657 100.959 21.2313C100.815 21.5141 100.618 21.7454 100.376 21.9596C100.133 22.1652 99.8461 22.328 99.523 22.4394C98.7153 22.7307 97.7191 22.6536 96.8486 22.2081C96.3012 21.9253 95.7627 21.4969 95.2422 20.94L94.8653 20.5373L92.8281 22.7564L93.0794 23.0649C93.7525 23.8874 94.5871 24.5214 95.5474 24.9584C96.5076 25.3868 97.5217 25.6095 98.5717 25.6095C99.4153 25.6095 100.196 25.4639 100.896 25.164C101.587 24.8727 102.197 24.4786 102.691 23.9902C103.194 23.5018 103.579 22.9278 103.849 22.2852C104.118 21.6426 104.261 20.9572 104.261 20.2632C104.261 19.5177 104.127 18.858 103.858 18.2925C103.597 17.7442 103.202 17.2387 102.709 16.7846C102.233 16.3476 101.632 15.9278 100.932 15.5251C100.259 15.1395 99.4781 14.7197 98.6076 14.257C97.9704 13.94 97.4948 13.5887 97.1807 13.2375C96.9025 12.9204 96.7589 12.5263 96.7589 12.0379C96.7589 11.5496 96.9563 11.164 97.3512 10.8299C97.773 10.4786 98.2666 10.3072 98.8589 10.3072L98.8768 10.3244Z" fill="#212121"/>
<path d="M123.2 9.91308C122.357 9.10769 121.352 8.4651 120.212 8.011C119.072 7.5569 117.816 7.32556 116.479 7.32556C115.07 7.32556 113.768 7.5826 112.611 8.09668C111.462 8.61075 110.466 9.29619 109.658 10.1444C108.85 10.9926 108.222 11.9779 107.773 13.0832C107.334 14.1885 107.109 15.3366 107.109 16.5104C107.109 17.6842 107.325 18.858 107.738 19.9461C108.159 21.0428 108.779 22.0196 109.577 22.8507C110.376 23.6817 111.39 24.35 112.575 24.8384C113.759 25.3268 115.114 25.5753 116.604 25.5753C118.606 25.5753 120.347 25.104 121.8 24.1787C123.236 23.2619 124.403 21.9853 125.265 20.3917L125.489 19.9718L122.788 18.6181L122.545 18.9951C122.231 19.4749 121.89 19.9376 121.522 20.3745C121.172 20.7944 120.759 21.1799 120.284 21.5141C119.817 21.8482 119.279 22.1052 118.686 22.2937C118.094 22.4822 117.394 22.5765 116.604 22.5765C115.698 22.5765 114.863 22.4308 114.109 22.1481C113.365 21.8653 112.718 21.4541 112.189 20.94C111.65 20.4174 111.22 19.7833 110.915 19.0636C110.663 18.4724 110.493 17.8213 110.421 17.1187H125.911V16.4847C125.911 15.1652 125.668 13.9314 125.193 12.8176C124.717 11.7038 124.044 10.727 123.2 9.91308ZM110.798 14.2999C111.265 13.0404 111.947 12.0722 112.826 11.4382C113.84 10.7013 115.079 10.3243 116.515 10.3243C117.95 10.3243 119.153 10.6928 120.239 11.421C121.172 12.0465 121.872 13.0147 122.312 14.3084H110.798V14.2999Z" fill="#212121"/>
<path d="M129.961 25.1726H133.174V10.5728H138.962L137.715 7.75396H133.174V1.61932H129.961V25.1726Z" fill="#212121"/>
<path d="M175.149 7.75397H171.945V25.1726H175.149V7.75397Z" fill="#212121"/>
<path d="M189.198 7.75397H183.509H180.305V10.8127V25.1726H183.509V10.8127H189.198V7.75397Z" fill="#212121"/>
<path d="M209.997 16.4761C209.997 15.1567 209.754 13.9229 209.279 12.8091C208.803 11.6952 208.13 10.7185 207.286 9.90453C206.443 9.09915 205.438 8.45655 204.298 8.00245C203.158 7.54835 201.902 7.31702 200.565 7.31702C199.156 7.31702 197.854 7.57405 196.697 8.08813C195.548 8.60221 194.552 9.28764 193.744 10.1359C192.936 10.9841 192.308 11.9694 191.859 13.0747C191.42 14.1799 191.195 15.328 191.195 16.5018C191.195 17.6756 191.411 18.8495 191.824 19.9376C192.245 21.0343 192.865 22.011 193.663 22.8421C194.462 23.6732 195.476 24.3415 196.661 24.8299C197.845 25.3182 199.2 25.5667 200.69 25.5667C202.691 25.5667 204.432 25.0955 205.886 24.1701C207.322 23.2534 208.489 21.9767 209.35 20.3831L209.575 19.9633L206.874 18.6096L206.631 18.9865C206.317 19.4663 205.976 19.929 205.608 20.366C205.258 20.7858 204.845 21.1714 204.37 21.5055C203.903 21.8397 203.365 22.0967 202.772 22.2852C202.18 22.4737 201.48 22.5679 200.69 22.5679C199.784 22.5679 198.949 22.4223 198.195 22.1395C197.45 21.8568 196.804 21.4455 196.275 20.9315C195.736 20.4088 195.306 19.7748 195 19.0551C194.749 18.4639 194.579 17.8127 194.507 17.1102H209.997V16.4761ZM194.884 14.2913C195.35 13.0318 196.032 12.0637 196.912 11.4296C197.926 10.6928 199.165 10.3158 200.6 10.3158C202.036 10.3158 203.239 10.6842 204.325 11.4125C205.258 12.0379 205.958 13.0061 206.398 14.2999H194.884V14.2913Z" fill="#212121"/>
<path d="M168.915 7.75395H165.523L160.488 18.9779L155.382 8.00242L154.745 6.62299L154.107 8.00242L150.562 15.6707L152.241 19.4835L154.771 14.0514L159.941 25.1726L160.479 26.3464L161.018 25.1726L168.915 7.75395Z" fill="#212121"/>
<path d="M150.708 22.765L145.369 10.6242L144.103 7.75397H140.711L148.474 25.1726L149.012 26.3807L149.578 25.1726L150.708 22.765Z" fill="#EC1C24"/>
</svg>
