<svg width="159" height="159" viewBox="0 0 159 159" fill="none" xmlns="http://www.w3.org/2000/svg">
<path d="M18.0833 158.671C13.2479 158.671 9.10851 156.949 5.6651 153.506C2.2217 150.062 0.5 145.923 0.5 141.087V18.004C0.5 13.1686 2.2217 9.02916 5.6651 5.58576C9.10851 2.14236 13.2479 0.420654 18.0833 0.420654H141.167C146.002 0.420654 150.141 2.14236 153.585 5.58576C157.028 9.02916 158.75 13.1686 158.75 18.004V141.087C158.75 145.923 157.028 150.062 153.585 153.506C150.141 156.949 146.002 158.671 141.167 158.671H18.0833ZM18.0833 141.087H141.167V18.004H18.0833V141.087ZM26.875 123.504H132.375L99.4062 79.5457L73.0312 114.712L53.25 88.3373L26.875 123.504Z" fill="black"/>
</svg>
